<svg width="30" height="30" viewBox="0 0 30 30" fill="none" xmlns="http://www.w3.org/2000/svg">
<g clip-path="url(#clip0_112_336)">
<path d="M4.99608 16.4873C5.27195 16.4873 5.49558 16.2636 5.49558 15.9878C5.49558 15.7119 5.27195 15.4883 4.99608 15.4883C4.72022 15.4883 4.49658 15.7119 4.49658 15.9878C4.49658 16.2636 4.72022 16.4873 4.99608 16.4873Z" fill="white"/>
<path d="M6.99462 14.9883C7.27048 14.9883 7.49412 14.7646 7.49412 14.4888C7.49412 14.2129 7.27048 13.9893 6.99462 13.9893C6.71875 13.9893 6.49512 14.2129 6.49512 14.4888C6.49512 14.7646 6.71875 14.9883 6.99462 14.9883Z" fill="white"/>
<path d="M11.9907 14.4885C12.2666 14.4885 12.4902 14.2649 12.4902 13.989C12.4902 13.7131 12.2666 13.4895 11.9907 13.4895C11.7148 13.4895 11.4912 13.7131 11.4912 13.989C11.4912 14.2649 11.7148 14.4885 11.9907 14.4885Z" fill="white"/>
<path d="M3.49706 18.9851C3.77292 18.9851 3.99656 18.7614 3.99656 18.4856C3.99656 18.2097 3.77292 17.9861 3.49706 17.9861C3.22119 17.9861 2.99756 18.2097 2.99756 18.4856C2.99756 18.7614 3.22119 18.9851 3.49706 18.9851Z" fill="white"/>
<path d="M5.99511 18.4856C6.27097 18.4856 6.49461 18.2619 6.49461 17.9861C6.49461 17.7102 6.27097 17.4866 5.99511 17.4866C5.71924 17.4866 5.49561 17.7102 5.49561 17.9861C5.49561 18.2619 5.71924 18.4856 5.99511 18.4856Z" fill="white"/>
<path d="M7.99413 16.9868C8.27 16.9868 8.49363 16.7632 8.49363 16.4873C8.49363 16.2114 8.27 15.9878 7.99413 15.9878C7.71826 15.9878 7.49463 16.2114 7.49463 16.4873C7.49463 16.7632 7.71826 16.9868 7.99413 16.9868Z" fill="white"/>
<path d="M28.478 5.49563H21.4831V3.49725C21.4831 3.36477 21.5357 3.23772 21.6294 3.14405C21.723 3.05038 21.8501 2.99775 21.9826 2.99775H25.9797C26.3672 2.98273 26.7338 2.81825 27.0026 2.5388C27.2715 2.25934 27.4216 1.88664 27.4216 1.49888C27.4216 1.11111 27.2715 0.738405 27.0026 0.458953C26.7338 0.179502 26.3672 0.0150154 25.9797 0L21.4831 0C20.6885 0.00109228 19.9269 0.317336 19.3652 0.879341C18.8036 1.44134 18.4878 2.2032 18.4872 2.99775V5.496H11.4908C11.093 5.496 10.7115 5.65404 10.4302 5.93534C10.1489 6.21664 9.99082 6.59818 9.99082 6.996V7.4955C9.99193 7.80943 10.0918 8.11506 10.2763 8.36907C10.4608 8.62308 10.7205 8.81259 11.0187 8.91075L11.2062 11.5208C10.9692 11.5069 10.7329 11.4923 10.4918 11.4923C9.76813 11.4938 9.04611 11.5617 8.33482 11.6951L7.12282 10.1201C8.28345 8.97112 8.34795 7.61663 7.75095 6.84225C7.15395 6.06787 5.82345 5.78587 4.42095 6.6135L4.09657 6.1905C4.05722 6.13675 4.00751 6.09142 3.95038 6.05717C3.89324 6.02292 3.82983 6.00045 3.76388 5.99107C3.69793 5.98169 3.63077 5.9856 3.56635 6.00256C3.50193 6.01953 3.44156 6.04921 3.38878 6.08985C3.33601 6.1305 3.29189 6.18129 3.25904 6.23924C3.22618 6.29719 3.20525 6.36112 3.19748 6.42728C3.1897 6.49344 3.19523 6.56049 3.21376 6.62447C3.23228 6.68846 3.26341 6.7481 3.30532 6.79987L3.6312 7.22363C2.46645 8.37263 2.40945 9.73013 3.00307 10.5C3.6072 11.2837 4.94257 11.55 6.33307 10.7288L7.27057 11.9445C3.61807 12.99 0.999074 15.7477 0.999074 18.9855C0.997728 19.2054 1.01025 19.4253 1.03657 19.6436C1.06606 19.9196 1.17155 20.182 1.34131 20.4016C1.51106 20.6212 1.73841 20.7894 1.99807 20.8875V21.984C1.51315 21.9848 1.04513 22.1622 0.681546 22.4831C0.317964 22.804 0.0837264 23.2463 0.0226458 23.7274C-0.0384349 24.2084 0.077825 24.6953 0.34968 25.0968C0.621535 25.4984 1.03036 25.7872 1.4997 25.9091V26.9794C1.49986 27.7287 1.78222 28.4505 2.29057 29.001H0.499199C0.366674 29.001 0.239576 29.0536 0.145867 29.1474C0.0521572 29.2411 -0.000488281 29.3682 -0.000488281 29.5007C-0.000488281 29.6332 0.0521572 29.7603 0.145867 29.854C0.239576 29.9477 0.366674 30.0004 0.499199 30.0004H29.477C29.6095 30.0004 29.7366 29.9477 29.8303 29.854C29.924 29.7603 29.9766 29.6332 29.9766 29.5007C29.9766 29.3682 29.924 29.2411 29.8303 29.1474C29.7366 29.0536 29.6095 29.001 29.477 29.001H26.8576C27.3159 28.505 27.5925 27.8684 27.6424 27.195L28.9497 8.9085C29.2478 8.81048 29.5076 8.62111 29.692 8.36722C29.8765 8.11334 29.9764 7.80783 29.9776 7.494V6.9945C29.9776 6.59668 29.8195 6.21514 29.5382 5.93384C29.2569 5.65254 28.8754 5.4945 28.4776 5.4945L28.478 5.49563ZM3.79282 9.8925C3.39307 9.372 3.75982 8.55037 4.24657 8.025L4.52332 8.38425C4.56268 8.438 4.61239 8.48333 4.66952 8.51758C4.72666 8.55183 4.79007 8.5743 4.85602 8.58368C4.92197 8.59306 4.98913 8.58915 5.05355 8.57219C5.11796 8.55522 5.17834 8.52554 5.23111 8.4849C5.28389 8.44425 5.32801 8.39346 5.36086 8.33551C5.39371 8.27756 5.41465 8.21363 5.42242 8.14747C5.4302 8.08131 5.42466 8.01426 5.40614 7.95028C5.38762 7.88629 5.35649 7.82665 5.31457 7.77487L5.03782 7.41562C5.64195 7.09425 6.5487 6.92063 6.95932 7.45312C7.45582 8.09775 6.79357 9.1575 6.13845 9.66187C5.48332 10.1663 4.2897 10.5367 3.79282 9.89213V9.8925ZM19.4847 2.99775C19.4847 2.46775 19.6952 1.95945 20.07 1.58469C20.4448 1.20992 20.9531 0.999375 21.4831 0.999375H25.9797C26.1122 0.999375 26.2393 1.05202 26.333 1.14573C26.4267 1.23944 26.4794 1.36654 26.4794 1.49906C26.4794 1.63159 26.4267 1.75869 26.333 1.85239C26.2393 1.9461 26.1122 1.99875 25.9797 1.99875H21.983C21.5851 1.99875 21.2036 2.15679 20.9223 2.43809C20.641 2.71939 20.483 3.10093 20.483 3.49875V5.49713H19.4847V2.99775ZM27.7624 11.4911H12.2059L12.0274 8.99288H27.9413L27.7624 11.4911ZM26.8343 24.4811H20.9127C20.9577 24.3184 20.9815 24.1505 20.9836 23.9816C20.9836 23.4516 20.773 22.9433 20.3983 22.5686C20.0235 22.1938 19.5152 21.9832 18.9852 21.9832V20.8841C19.2438 20.7874 19.4705 20.6209 19.6401 20.403C19.8096 20.1851 19.9154 19.9244 19.9456 19.65C19.972 19.4299 19.9846 19.2083 19.9831 18.9866C19.9831 18.7991 19.9647 18.6116 19.9456 18.4271C20.4223 18.3147 20.841 18.0309 21.122 17.6298C21.403 17.2286 21.5267 16.7381 21.4694 16.2517C21.4121 15.7653 21.178 15.3169 20.8115 14.992C20.445 14.667 19.9719 14.4882 19.4821 14.4896C19.0898 14.4919 18.7071 14.6111 18.3829 14.832C17.5086 13.8274 16.4233 13.0281 15.2044 12.4913H27.6916L26.8343 24.4811ZM18.9852 22.9811C19.118 22.9786 19.2501 23.0025 19.3735 23.0516C19.497 23.1006 19.6095 23.1738 19.7043 23.2668C19.7992 23.3599 19.8746 23.4709 19.926 23.5934C19.9774 23.7159 20.0039 23.8474 20.0039 23.9803C20.0039 24.1132 19.9774 24.2447 19.926 24.3672C19.8746 24.4897 19.7992 24.6008 19.7043 24.6938C19.6095 24.7868 19.497 24.86 19.3735 24.9091C19.2501 24.9581 19.118 24.9821 18.9852 24.9795H9.69907L11.6974 22.9811H18.9852ZM19.4847 26.9794V25.9091C19.7839 25.8311 20.0607 25.6843 20.2932 25.4805H26.7627L26.6457 27.1226C26.6072 27.626 26.3805 28.0963 26.0108 28.4401C25.6411 28.7839 25.1555 28.9758 24.6507 28.9778H18.7152C19.2102 28.4299 19.4844 27.7178 19.4847 26.9794ZM18.9717 15.6375C19.0919 15.5637 19.2264 15.5164 19.3664 15.4988C19.5063 15.4811 19.6484 15.4935 19.7831 15.5351C19.9179 15.5767 20.0422 15.6466 20.1478 15.74C20.2535 15.8335 20.3379 15.9484 20.3956 16.0771C20.4533 16.2058 20.4829 16.3453 20.4824 16.4863C20.4819 16.6274 20.4514 16.7667 20.3928 16.895C20.3342 17.0232 20.2489 17.1376 20.1426 17.2303C20.0363 17.323 19.9115 17.392 19.7764 17.4326C19.6014 16.7967 19.33 16.1913 18.9717 15.6375ZM7.9227 12.795L9.09682 14.3194C9.13689 14.3713 9.18679 14.4149 9.24368 14.4476C9.30058 14.4802 9.36335 14.5014 9.42841 14.5098C9.49348 14.5182 9.55956 14.5137 9.62289 14.4966C9.68622 14.4794 9.74556 14.45 9.79751 14.4099C9.84947 14.3699 9.89302 14.32 9.92569 14.2631C9.95836 14.2062 9.9795 14.1434 9.98791 14.0784C9.99632 14.0133 9.99183 13.9472 9.9747 13.8839C9.95757 13.8205 9.92813 13.7612 9.88807 13.7092L9.0282 12.5933C9.51287 12.5264 10.0014 12.4918 10.4907 12.4897C15.1741 12.4897 18.9841 15.4035 18.9841 18.9847C18.9847 19.1685 18.9741 19.3521 18.9522 19.5345C18.9399 19.6582 18.8819 19.7729 18.7895 19.8561C18.6971 19.9393 18.577 19.9851 18.4527 19.9845H2.52757C2.40238 19.9843 2.28178 19.9373 2.18939 19.8528C2.097 19.7684 2.03947 19.6524 2.02807 19.5278C2.00702 19.3477 1.997 19.1664 1.99807 18.9851C1.99807 16.0875 4.49182 13.6301 7.92307 12.7954L7.9227 12.795ZM2.99745 20.9839H17.9858V21.9832H11.4908C11.4252 21.9832 11.3603 21.9961 11.2997 22.0212C11.239 22.0463 11.184 22.0831 11.1376 22.1295L7.5177 25.7486L4.36995 22.1512C4.32297 22.0982 4.26523 22.0557 4.20057 22.0267C4.13592 21.9977 4.06582 21.9827 3.99495 21.9829H2.99745V20.9839ZM0.999074 23.9816C0.999074 23.7166 1.10437 23.4624 1.29178 23.275C1.4792 23.0875 1.7334 22.9823 1.99845 22.9823H3.76995L5.51857 24.9806H1.99807C1.73302 24.9806 1.47883 24.8753 1.29141 24.6879C1.10399 24.5005 0.998699 24.2463 0.998699 23.9813L0.999074 23.9816ZM4.49632 28.9778C3.96632 28.9778 3.45803 28.7672 3.08326 28.3924C2.70849 28.0177 2.49795 27.5094 2.49795 26.9794V25.98H6.39495L6.76995 26.4071C6.86023 26.5099 6.97058 26.593 7.09421 26.6515C7.21784 26.71 7.35213 26.7426 7.48882 26.7472H7.52145C7.78653 26.7469 8.04069 26.6416 8.22832 26.4544L8.6997 25.98H18.4872V26.9794C18.4872 27.5094 18.2767 28.0177 17.9019 28.3924C17.5271 28.7672 17.0188 28.9778 16.4888 28.9778H4.49632ZM28.9775 7.49438C28.9775 7.62685 28.9248 7.7539 28.8312 7.84758C28.7375 7.94125 28.6104 7.99387 28.478 7.99387H11.4904C11.358 7.99387 11.2309 7.94125 11.1372 7.84758C11.0436 7.7539 10.9909 7.62685 10.9909 7.49438V6.9945C10.9909 6.92891 11.0039 6.86395 11.029 6.80335C11.0541 6.74275 11.0909 6.68768 11.1372 6.6413C11.1836 6.59492 11.2387 6.55812 11.2993 6.53302C11.3599 6.50792 11.4249 6.495 11.4904 6.495H28.478C28.5435 6.495 28.6085 6.50792 28.6691 6.53302C28.7297 6.55812 28.7848 6.59492 28.8312 6.6413C28.8775 6.68768 28.9143 6.74275 28.9394 6.80335C28.9645 6.86395 28.9775 6.92891 28.9775 6.9945V7.49438Z" fill="white"/>
<path d="M24.4813 13.4895C24.086 13.4895 23.6997 13.6067 23.371 13.8263C23.0424 14.0459 22.7863 14.358 22.635 14.7231C22.4838 15.0883 22.4442 15.4901 22.5213 15.8777C22.5984 16.2654 22.7887 16.6215 23.0682 16.9009C23.3477 17.1804 23.7038 17.3707 24.0914 17.4479C24.4791 17.525 24.8809 17.4854 25.246 17.3341C25.6112 17.1829 25.9233 16.9267 26.1429 16.5981C26.3625 16.2695 26.4797 15.8831 26.4797 15.4879C26.4797 14.9579 26.2691 14.4496 25.8944 14.0748C25.5196 13.7 25.0113 13.4895 24.4813 13.4895ZM24.4813 16.4873C24.2836 16.4873 24.0904 16.4286 23.9261 16.3188C23.7617 16.209 23.6336 16.0529 23.558 15.8703C23.4823 15.6877 23.4626 15.4868 23.5011 15.2929C23.5397 15.099 23.6349 14.921 23.7746 14.7812C23.9144 14.6414 24.0925 14.5463 24.2863 14.5077C24.4802 14.4691 24.6811 14.4889 24.8637 14.5646C25.0463 14.6402 25.2024 14.7683 25.3122 14.9327C25.422 15.097 25.4807 15.2902 25.4807 15.4879C25.4807 15.7529 25.3754 16.0071 25.188 16.1945C25.0005 16.382 24.7463 16.4873 24.4813 16.4873Z" fill="white"/>
<path d="M22.9834 19.9846C22.6867 19.9846 22.3967 20.0726 22.15 20.2374C21.9034 20.4022 21.7111 20.6365 21.5976 20.9106C21.484 21.1847 21.4543 21.4863 21.5122 21.7773C21.5701 22.0682 21.713 22.3355 21.9227 22.5453C22.1325 22.7551 22.3998 22.8979 22.6908 22.9558C22.9817 23.0137 23.2833 22.984 23.5574 22.8704C23.8315 22.7569 24.0658 22.5646 24.2306 22.318C24.3954 22.0713 24.4834 21.7813 24.4834 21.4846C24.4834 21.0868 24.3254 20.7053 24.0441 20.424C23.7628 20.1427 23.3812 19.9846 22.9834 19.9846ZM22.9834 21.983C22.8845 21.9832 22.7878 21.9541 22.7055 21.8993C22.6232 21.8445 22.559 21.7665 22.521 21.6752C22.4831 21.5838 22.4731 21.4833 22.4923 21.3863C22.5116 21.2893 22.5592 21.2002 22.6291 21.1303C22.699 21.0604 22.7881 21.0128 22.8851 20.9935C22.9821 20.9743 23.0826 20.9843 23.1739 21.0222C23.2653 21.0602 23.3433 21.1244 23.3981 21.2067C23.4529 21.289 23.482 21.3857 23.4818 21.4846C23.4815 21.6167 23.4289 21.7433 23.3355 21.8367C23.2421 21.9301 23.1155 21.9827 22.9834 21.983Z" fill="white"/>
</g>
<defs>
<clipPath id="clip0_112_336">
<rect width="29.9771" height="30" fill="white"/>
</clipPath>
</defs>
</svg>
